<?xml version="1.0" standalone="no"?>
<!DOCTYPE svg PUBLIC "-//W3C//DTD SVG 20010904//EN"
 "http://www.w3.org/TR/2001/REC-SVG-20010904/DTD/svg10.dtd">
<svg version="1.0" xmlns="http://www.w3.org/2000/svg"
 width="111.000000pt" height="111.000000pt" viewBox="0 0 111.000000 111.000000"
 preserveAspectRatio="xMidYMid meet">
<metadata>
Created by potrace 1.14, written by Peter Selinger 2001-2017
</metadata>
<g transform="translate(0.000000,111.000000) scale(0.100000,-0.100000)"
fill="#000000" stroke="none">
<path d="M470 1058 c-26 -28 -25 -53 1 -79 17 -17 29 -20 60 -15 37 6 41 4 60
-29 20 -34 51 -46 64 -25 11 17 -14 48 -45 55 -24 5 -32 14 -40 45 -19 70 -61
90 -100 48z"/>
<path d="M874 961 c-43 -19 -54 -49 -48 -131 5 -67 4 -78 -16 -103 -22 -27
-25 -28 -96 -24 -68 4 -90 -2 -64 -18 17 -10 11 -71 -8 -88 -39 -36 -102 -4
-102 51 1 23 2 24 11 10 11 -19 54 -24 64 -8 13 21 -6 50 -33 50 -51 0 -131
-65 -178 -146 -22 -38 -31 -44 -58 -44 -26 0 -39 8 -65 40 -37 46 -66 56 -114
41 -41 -14 -62 -54 -52 -100 14 -63 79 -78 152 -35 28 16 55 24 75 22 28 -3
34 -9 59 -71 53 -133 104 -170 258 -191 l86 -11 0 -77 c0 -67 3 -79 24 -102
27 -28 74 -35 95 -13 8 7 21 27 30 45 23 45 6 74 -65 112 -33 17 -59 37 -59
44 0 7 16 34 35 59 l35 46 -35 -14 c-19 -8 -51 -15 -71 -15 -27 0 -37 -5 -41
-20 -4 -16 -9 -18 -26 -8 -17 9 -24 7 -38 -10 -9 -12 -19 -18 -23 -15 -14 14
-5 53 17 68 14 10 18 18 11 23 -44 28 -58 144 -24 199 22 38 86 73 130 73 36
0 80 38 80 71 0 36 37 75 92 99 29 12 68 33 86 47 26 20 32 31 32 63 0 32 -5
43 -30 60 -35 25 -94 34 -126 21z m-154 -290 c0 -26 17 -36 35 -21 12 10 15 9
15 -9 0 -22 -37 -38 -65 -27 -15 5 -21 57 -8 69 12 13 23 7 23 -12z m-169
-110 c32 -33 37 -67 14 -110 -25 -49 -96 -58 -135 -16 l-23 24 34 -5 c28 -5
39 -1 59 21 28 30 23 47 -29 82 -33 23 -28 31 22 32 19 1 39 -9 58 -28z m17
-187 c37 -26 26 -104 -15 -104 -11 0 -11 5 -3 21 9 15 8 24 -1 35 -18 22 -58
17 -69 -8 -9 -23 -9 -23 -9 2 -2 59 50 87 97 54z m187 -103 c3 -6 -3 -15 -14
-21 -21 -11 -37 2 -26 20 8 13 32 13 40 1z"/>
<path d="M256 804 c-22 -21 -20 -67 2 -87 29 -26 61 -20 104 19 38 34 42 35
99 31 63 -4 74 1 64 33 -8 25 -32 25 -70 0 -16 -11 -39 -20 -50 -20 -11 0 -33
9 -50 20 -36 24 -78 26 -99 4z"/>
<path d="M830 602 c0 -10 11 -33 25 -52 30 -41 33 -24 5 30 -22 44 -30 49 -30
22z"/>
</g>
</svg>
