<?xml version="1.0" standalone="no"?>
<!DOCTYPE svg PUBLIC "-//W3C//DTD SVG 20010904//EN"
 "http://www.w3.org/TR/2001/REC-SVG-20010904/DTD/svg10.dtd">
<svg version="1.0" xmlns="http://www.w3.org/2000/svg"
 width="600.000000pt" height="600.000000pt" viewBox="0 0 600.000000 600.000000"
 preserveAspectRatio="xMidYMid meet">
<metadata>
Created by potrace 1.14, written by Peter Selinger 2001-2017
</metadata>
<g transform="translate(0.000000,600.000000) scale(0.100000,-0.100000)"
fill="#000000" stroke="none">
<path d="M1460 5239 c0 -6 -5 -7 -10 -4 -15 9 -57 -28 -54 -48 1 -9 -1 -17 -4
-17 -7 0 -6 -4277 1 -4319 2 -15 18 -32 43 -46 l39 -22 1570 2 c864 1 1582 5
1597 9 61 18 57 -142 59 2132 2 1144 3 2123 3 2177 1 93 0 99 -24 117 -13 10
-28 16 -32 14 -3 -2 -9 0 -13 5 -8 14 -3175 13 -3175 0z m1535 -756 c47 -25
86 -66 101 -109 6 -17 12 -75 13 -129 1 -53 7 -105 14 -115 18 -30 53 -40 142
-40 78 0 135 -13 135 -31 0 -4 7 -14 15 -23 14 -14 21 -54 17 -102 -1 -12 -15
-35 -32 -51 -34 -33 -101 -43 -152 -22 -35 14 -68 74 -68 124 0 42 -40 111
-74 127 -19 8 -40 5 -97 -13 -41 -12 -85 -23 -99 -24 -35 -3 -110 15 -143 34
-59 34 -107 152 -88 219 5 17 8 32 5 32 -5 0 26 50 51 82 18 22 64 49 105 60
35 10 118 0 155 -19z m1365 -346 c78 -15 200 -75 230 -114 133 -169 92 -394
-94 -519 -43 -28 -128 -52 -209 -59 -127 -11 -207 -66 -292 -201 -34 -54 -45
-78 -51 -113 -3 -13 -6 -26 -6 -30 -5 -20 18 -81 43 -113 33 -42 38 -57 9 -28
-24 24 -77 26 -108 4 -35 -24 -44 -59 -27 -100 14 -35 14 -35 -8 -28 -45 14
-93 24 -124 24 -35 0 -44 15 -15 25 29 10 72 53 86 87 22 55 4 130 -43 172
-24 22 -28 38 -6 30 8 -4 21 -1 29 5 7 6 15 8 18 5 4 -3 24 6 45 19 41 26 131
162 151 228 16 55 22 98 13 103 -5 3 -11 23 -15 43 -3 21 -17 65 -30 97 -18
45 -24 77 -23 130 0 39 4 78 8 86 4 8 17 36 29 63 41 88 138 163 245 187 31 6
102 5 145 -3z m-2074 -528 c26 -12 67 -44 93 -71 25 -27 58 -56 73 -64 33 -17
136 -18 175 -2 15 6 31 11 34 10 4 -1 20 18 35 41 43 62 56 75 99 92 92 39
195 -30 195 -130 0 -46 -52 -101 -106 -111 -43 -8 -104 10 -141 42 -15 13 -45
26 -67 30 -122 23 -221 -19 -268 -114 -40 -80 -63 -106 -121 -136 -45 -22 -67
-27 -114 -25 -59 2 -113 16 -113 28 0 4 -14 15 -30 25 -62 36 -96 159 -70 255
18 67 84 131 158 150 44 12 122 3 168 -20z m1129 -353 c28 -2 61 -7 75 -10 14
-4 40 -9 58 -12 18 -3 48 -12 66 -19 18 -8 36 -12 39 -9 3 3 8 1 12 -5 4 -7
-3 -11 -18 -11 -58 0 -163 -74 -150 -106 3 -8 1 -14 -5 -14 -8 0 -9 -30 -3
-87 2 -19 61 -83 92 -99 15 -7 45 -15 66 -15 28 -1 22 -4 -25 -10 -34 -4 -73
-11 -85 -15 -12 -5 -24 -8 -27 -9 -10 0 -95 -39 -100 -45 -3 -4 -26 -20 -51
-38 -43 -29 -129 -120 -129 -137 0 -4 -8 -19 -19 -33 -64 -93 -85 -302 -40
-419 38 -101 122 -215 198 -266 l26 -17 -30 2 c-40 2 -73 -9 -113 -39 -38 -29
-57 -65 -61 -116 -3 -37 17 -97 31 -97 5 0 8 -6 8 -12 0 -17 66 -54 113 -62
29 -5 37 -4 37 7 0 8 -12 18 -27 22 -33 8 -62 32 -73 61 -11 28 8 104 26 104
8 0 14 5 14 10 0 17 83 11 107 -8 31 -24 37 -90 12 -137 -25 -47 -24 -50 10
-26 58 42 81 143 47 208 l-16 32 28 -9 c15 -4 48 -14 73 -21 l47 -13 -30 -29
c-26 -26 -29 -35 -23 -66 7 -41 48 -80 83 -81 18 0 21 4 15 18 -5 9 -8 24 -7
32 1 8 2 21 3 28 0 6 10 12 21 12 21 0 24 -7 20 -50 l-2 -25 23 22 c41 40 20
107 -41 132 -22 8 -18 10 26 10 28 1 54 4 57 8 4 3 19 8 33 9 15 2 41 9 58 17
17 8 47 22 66 31 19 9 64 42 100 74 35 31 60 50 55 42 -33 -57 -93 -129 -180
-215 -56 -55 -106 -109 -112 -120 -25 -50 8 -165 55 -189 34 -18 106 -37 155
-42 63 -7 135 -54 195 -128 78 -97 66 -264 -27 -362 -114 -121 -342 -110 -443
23 -50 66 -77 177 -57 231 5 12 11 33 13 45 12 55 15 66 25 86 6 11 16 30 21
41 29 57 -16 167 -81 201 -33 16 -51 18 -146 12 -230 -13 -314 -6 -438 37 -87
31 -190 85 -229 122 -11 10 -23 18 -28 18 -14 0 -144 134 -174 180 -47 73 -53
83 -70 120 -46 99 -65 167 -87 315 -11 72 -64 111 -173 124 -55 6 -71 5 -102
-12 -53 -27 -102 -61 -102 -70 0 -10 -50 -60 -80 -78 -73 -46 -175 -63 -265
-45 -45 9 -132 55 -155 83 -36 43 -60 83 -74 124 -16 45 -22 140 -9 153 4 3 8
16 10 28 2 12 10 32 18 45 8 12 15 28 15 35 0 20 77 85 137 114 49 25 68 28
147 28 78 0 98 -4 141 -26 74 -39 138 -112 164 -188 15 -45 36 -70 86 -100 32
-20 52 -24 116 -25 108 0 147 31 166 130 4 22 82 187 92 195 3 3 19 25 35 50
60 93 198 205 331 270 28 13 55 25 60 27 6 1 21 5 35 9 23 6 23 5 -8 -21 -54
-47 -74 -88 -77 -163 -7 -146 93 -252 235 -247 62 2 109 23 151 66 48 49 63
87 62 159 -2 79 -10 104 -56 153 -40 44 -73 63 -122 73 -42 8 -47 23 -6 19 16
-1 34 0 39 4 11 6 34 6 127 -3z m-181 -80 c31 -29 36 -39 36 -81 0 -80 -61
-134 -139 -122 -66 11 -102 60 -95 132 3 38 48 100 65 89 4 -2 10 -1 12 3 3 5
23 9 45 11 34 2 46 -3 76 -32z m471 4 c3 -5 2 -10 -4 -10 -5 0 -13 5 -16 10
-3 6 -2 10 4 10 5 0 13 -4 16 -10z m29 -46 c21 -37 23 -81 5 -106 -26 -33
-103 -33 -130 1 -23 28 -24 73 -3 106 14 22 22 25 67 21 35 -2 53 -9 61 -22z
m256 -228 c0 -32 -14 -40 -34 -20 -25 25 -18 44 16 44 12 0 18 -7 18 -24z m67
-24 c15 -15 83 -157 88 -186 3 -10 9 -23 14 -30 6 -7 12 -28 14 -47 2 -19 5
-39 8 -44 3 -6 6 -26 7 -45 l3 -35 -20 42 c-51 110 -112 184 -188 230 -24 14
-43 29 -43 35 0 5 5 6 10 3 14 -8 70 48 71 72 1 10 1 27 0 38 l-2 20 13 -20
c6 -11 18 -26 25 -33z"/>
<path d="M2718 2818 c-24 -11 -52 -28 -63 -39 -11 -11 -29 -27 -40 -37 -11 -9
-27 -26 -35 -37 -14 -18 -12 -18 23 3 43 25 116 29 177 11 156 -47 171 -268
24 -351 -61 -34 -141 -27 -201 18 -17 13 -36 24 -41 24 -5 0 -15 11 -22 25
-19 35 -24 24 -7 -16 7 -19 12 -40 10 -46 -3 -7 26 -43 64 -80 75 -75 135
-103 217 -103 148 0 263 83 310 221 54 160 -16 325 -169 399 -65 31 -186 35
-247 8z"/>
<path d="M2955 2160 c-11 -5 -37 -11 -58 -15 -76 -12 -149 -110 -151 -203 -2
-133 93 -232 224 -233 190 -2 293 204 180 359 -31 44 -93 82 -133 82 -12 0
-27 4 -32 9 -6 5 -19 5 -30 1z m7 -165 c13 -3 37 -20 55 -39 29 -31 31 -39 28
-88 -3 -47 -8 -57 -41 -85 -29 -26 -46 -33 -79 -33 -80 0 -126 42 -130 119 -2
47 19 101 41 101 6 0 17 6 24 14 11 14 57 25 72 18 5 -2 18 -5 30 -7z"/>
</g>
</svg>
